<?xml version="1.0" encoding="UTF-8" standalone="no"?>
<svg width="81px" height="18px" viewBox="0 0 81 18" version="1.1" xmlns="http://www.w3.org/2000/svg" xmlns:xlink="http://www.w3.org/1999/xlink">
    <!-- Generator: Sketch 41 (35326) - http://www.bohemiancoding.com/sketch -->
    <title>Page 1</title>
    <desc>Created with Sketch.</desc>
    <defs></defs>
    <g id="Page-1" stroke="none" stroke-width="1" fill="none" fill-rule="evenodd">
        <g id="home" transform="translate(-21.000000, -16.000000)" fill="#23221E">
            <g id="Page-1" transform="translate(21.000000, 16.000000)">
                <path d="M0,0.0882 L0.44,1.4082 L0.44,16.2857 L0,17.6327 L9.129,17.6327 L10.8885,15.9007 L10.8885,10.4277 L9.101,8.6682 L10.8885,6.9357 L10.8885,1.7932 L9.129,0.0882 L0,0.0882 Z M3.9045,6.5512 L3.9045,3.9377 L4.317,3.5252 L6.984,3.5252 L7.3965,3.9377 L7.3965,6.5512 L6.984,6.9357 L4.317,6.9357 L3.9045,6.5512 Z M3.9045,13.7007 L3.9045,10.8402 L4.317,10.4277 L6.984,10.4277 L7.3965,10.8402 L7.3965,13.7007 L6.984,14.1132 L4.317,14.1132 L3.9045,13.7007 Z" id="Fill-1"></path>
                <polygon id="Fill-2" points="13.2543 0.0882 13.6943 1.4082 13.6943 16.2857 13.2543 17.6327 23.7028 17.6327 24.3353 13.7007 22.9053 14.1132 17.5438 14.1132 17.1313 13.7007 17.1313 10.8677 17.5438 10.4827 19.3033 10.4827 20.6508 10.9227 20.6508 6.5512 19.3033 6.9907 17.5438 6.9907 17.1313 6.5787 17.1313 3.9377 17.5438 3.5252 22.9053 3.5252 24.3353 3.9377 23.7028 0.0882"></polygon>
                <polygon id="Fill-3" points="25.7931 0.0882 26.2331 1.4082 26.2331 16.2857 25.7931 17.6327 36.2416 17.6327 36.8746 13.7007 35.4446 14.1132 30.0826 14.1132 29.6701 13.7007 29.6701 10.8677 30.0826 10.4827 31.8426 10.4827 33.1896 10.9227 33.1896 6.5512 31.8426 6.9907 30.0826 6.9907 29.6701 6.5787 29.6701 3.9377 30.0826 3.5252 35.4446 3.5252 36.8746 3.9377 36.2416 0.0882"></polygon>
                <path d="M38.33235,0.0882 L38.77235,1.4357 L38.77235,16.3127 L38.33235,17.6327 L42.64935,17.6327 L42.20935,16.3127 L42.20935,11.8027 L42.62185,11.3902 L43.74885,11.3902 L44.02385,11.7202 L45.50885,16.3402 L45.20635,17.6327 L49.52335,17.6327 L48.97335,16.2307 L47.46085,11.3902 L49.22085,9.6307 L49.22085,1.7932 L47.46085,0.0882 L38.33235,0.0882 Z M42.20935,7.5412 L42.20935,3.9927 L42.62185,3.6077 L45.31635,3.6077 L45.72885,3.9927 L45.72885,7.5412 L45.31635,7.9257 L42.62185,7.9257 L42.20935,7.5412 Z" id="Fill-4"></path>
                <polygon id="Fill-5" points="63.4581 0 63.8976 1.347 63.8976 10.701 58.8391 0 54.9621 0 55.4016 1.347 55.4016 16.5325 54.9621 17.8525 59.2791 17.8525 58.8391 16.5325 58.8391 7.179 63.8976 17.8525 67.8296 17.8525 67.3896 16.5325 67.3896 1.347 67.8296 0"></polygon>
                <polygon id="Fill-6" points="71.4537 0 69.6942 1.7045 69.6942 16.1205 71.4537 17.8525 78.4102 17.8525 80.1422 16.1205 80.1422 12.5735 80.5822 11.2535 76.2102 11.2535 76.6777 12.5735 76.6777 13.9205 76.2932 14.333 73.5707 14.333 73.1582 13.9205 73.1582 3.8495 73.5707 3.437 76.2932 3.437 76.6777 3.8495 76.6777 5.2235 76.2102 6.544 80.5822 6.544 80.1422 5.2235 80.1422 1.7045 78.4102 0"></polygon>
            </g>
        </g>
    </g>
</svg>