<?xml version="1.0" encoding="UTF-8" standalone="no"?>
<svg width="216px" height="216px" viewBox="0 0 216 216" version="1.1" xmlns="http://www.w3.org/2000/svg" xmlns:xlink="http://www.w3.org/1999/xlink">
    <!-- Generator: Sketch 41 (35326) - http://www.bohemiancoding.com/sketch -->
    <title>Beer NC logo</title>
    <desc>Created with Sketch.</desc>
    <defs></defs>
    <g id="Symbols" stroke="none" stroke-width="1" fill="none" fill-rule="evenodd">
        <g id="Beer-NC-logo">
            <g>
                <path d="M215.6641,107.8319 C215.6641,114.8329 209.0351,121.0909 207.7261,127.7069 C206.3771,134.5249 210.0821,142.8359 207.4811,149.1089 C204.8341,155.4909 196.3121,158.7369 192.5141,164.4089 C188.6871,170.1259 188.9271,179.2349 184.0801,184.0809 C179.2341,188.9269 170.1251,188.6869 164.4091,192.5139 C158.7361,196.3119 155.4901,204.8349 149.1081,207.4809 C142.8361,210.0819 134.5241,206.3779 127.7071,207.7259 C121.0911,209.0349 114.8321,215.6639 107.8321,215.6639 C100.8311,215.6639 94.5731,209.0349 87.9571,207.7259 C81.1391,206.3779 72.8281,210.0819 66.5551,207.4809 C60.1731,204.8339 56.9271,196.3119 51.2551,192.5139 C45.5381,188.6869 36.4291,188.9269 31.5831,184.0809 C26.7361,179.2339 26.9771,170.1249 23.1501,164.4089 C19.3521,158.7359 10.8291,155.4899 8.1831,149.1079 C5.5821,142.8359 9.2861,134.5239 7.9381,127.7069 C6.6291,121.0909 0.0001,114.8319 0.0001,107.8319 C0.0001,100.8309 6.6291,94.5729 7.9381,87.9569 C9.2861,81.1389 5.5821,72.8279 8.1831,66.5549 C10.8291,60.1729 19.3521,56.9269 23.1501,51.2549 C26.9771,45.5389 26.7371,36.4289 31.5831,31.5829 C36.4301,26.7369 45.5391,26.9769 51.2551,23.1499 C56.9281,19.3519 60.1741,10.8289 66.5561,8.1829 C72.8281,5.5819 81.1391,9.2859 87.9571,7.9379 C94.5731,6.6289 100.8311,-0.0001 107.8321,-0.0001 C114.8321,-0.0001 121.0911,6.6289 127.7071,7.9379 C134.5251,9.2859 142.8361,5.5819 149.1081,8.1829 C155.4911,10.8299 158.7371,19.3519 164.4091,23.1499 C170.1251,26.9769 179.2351,26.7369 184.0811,31.5829 C188.9271,36.4299 188.6871,45.5389 192.5141,51.2549 C196.3121,56.9279 204.8351,60.1739 207.4811,66.5559 C210.0821,72.8279 206.3781,81.1399 207.7261,87.9569 C209.0351,94.5729 215.6641,100.8319 215.6641,107.8319" id="Fill-1" fill="#23221E"></path>
                <path d="M90.7582,139.9604 L90.7582,137.1934 C91.2172,135.1084 91.9792,133.1174 93.4102,131.3344 C94.3362,130.1824 95.2672,129.0334 96.2002,127.8854 C97.6302,126.1224 98.3752,124.2054 98.5362,122.0624 C98.9042,117.1744 99.4232,112.2934 99.8792,107.4094 C100.2492,103.4454 100.6292,99.4804 100.9622,95.5144 C100.9902,95.1824 100.8172,94.6954 100.5252,94.5144 C99.5252,93.8934 99.1632,93.1104 99.5012,92.1664 C99.8352,91.2324 100.3162,90.3334 100.7552,89.4274 C100.9762,88.9714 101.0572,88.6354 100.5262,88.2074 C100.1942,87.9394 100.0032,87.2684 100.1762,86.9274 C100.3932,86.4994 101.0162,85.9674 101.5202,85.9234 C105.7902,85.5514 110.0742,85.4444 114.3572,85.8254 C115.9712,85.9684 116.5932,86.8354 115.8352,88.0024 C115.5112,88.5004 115.6082,88.8824 115.7862,89.3704 C116.1652,90.4104 116.5862,91.4684 116.6902,92.5394 C116.7462,93.1114 116.3282,93.8284 115.8512,94.2874 C115.4472,94.6774 115.2662,94.9654 115.3112,95.4674 C116.1292,104.4614 116.9472,113.4544 117.7052,122.4524 C117.8352,123.9934 118.3152,125.4004 119.2912,126.6924 C120.4722,128.2564 121.7242,129.7834 122.9012,131.3494 C124.8212,133.9044 125.7552,136.6534 125.7182,139.7084 C125.5062,157.0854 125.3842,167.8564 125.2332,185.2344 C125.2242,186.2134 125.2932,187.1974 125.2022,188.1714 C124.9212,191.1994 123.8352,192.2764 120.2522,192.8514 C113.3122,193.9644 106.3182,193.9634 99.3292,193.2374 C97.4442,193.0414 95.5922,192.5754 93.7562,192.1444 C92.4332,191.8334 91.6602,191.0424 91.5562,189.8714 C91.4792,189.0114 91.3612,188.1504 91.3532,187.2884 C91.1882,169.7664 91.0382,158.8514 90.8792,141.3294 C90.8752,140.8734 90.8002,140.4164 90.7582,139.9604" id="Fill-4" fill="#CFB392"></path>
                <path d="M172.6965,117.1588 C172.8225,115.5138 172.9075,113.8568 172.9075,112.1798 C172.9075,111.4348 172.8925,110.6898 172.8665,109.9468 L177.1835,101.7178 C177.5275,103.9508 177.7775,106.2078 177.9085,108.4928 L172.6965,117.1588 Z M171.4725,98.6888 L174.8535,91.6788 C175.5525,93.9238 176.1385,96.2018 176.6065,98.5118 L172.6175,106.1158 C172.3815,103.6168 171.9955,101.1378 171.4725,98.6888 L171.4725,98.6888 Z M170.4665,119.4918 L164.6925,111.4998 C164.6805,109.3078 164.5365,107.1238 164.2735,104.9568 L170.8875,111.0018 C170.8955,111.3948 170.9075,111.7868 170.9075,112.1798 C170.9075,114.6548 170.7465,117.0908 170.4665,119.4918 L170.4665,119.4918 Z M162.6065,96.6248 L169.8795,100.9368 C170.3165,103.3318 170.6225,105.7538 170.7785,108.1918 L163.8025,101.8168 C163.4895,100.0668 163.0805,98.3368 162.6065,96.6248 L162.6065,96.6248 Z M158.8865,86.7748 L167.0415,91.6298 C167.1765,91.7098 167.3255,91.7528 167.4775,91.7638 C168.2155,93.9048 168.8395,96.0838 169.3425,98.2928 L161.7365,93.7838 C160.9375,91.3918 159.9995,89.0448 158.8865,86.7748 L158.8865,86.7748 Z M170.1835,80.2898 C171.6675,83.1498 172.9205,86.0888 173.9865,89.0848 L173.9025,89.0448 L170.7415,95.5998 C170.1885,93.5168 169.5285,91.4618 168.7705,89.4428 L170.1835,80.2898 Z M170.5135,76.7178 C170.3035,76.3498 169.8835,76.1558 169.4635,76.2308 C169.0455,76.3088 168.7225,76.6408 168.6575,77.0608 L167.2995,85.8568 C166.4305,83.9088 165.4655,82.0008 164.4025,80.1418 C164.1285,79.6628 163.5175,79.4968 163.0375,79.7708 C162.5585,80.0448 162.3925,80.6558 162.6665,81.1358 C164.1025,83.6468 165.3525,86.2538 166.4225,88.9288 L156.8435,83.2238 C156.4525,82.9918 155.9545,83.0458 155.6315,83.3628 C155.3075,83.6818 155.2385,84.1648 155.4635,84.5598 C160.1935,92.8318 162.6935,102.2238 162.6935,111.7708 C162.6935,111.9818 162.7605,112.1318 162.8835,112.3028 L170.0995,122.1828 C166.4375,144.9028 150.5155,163.5628 129.3635,171.1608 C129.3565,171.8658 129.3495,172.5718 129.3425,173.2908 C151.7835,165.5208 168.6585,145.7288 172.2075,121.6478 L179.7805,109.2598 C179.8835,109.0888 179.9325,108.8908 179.9215,108.6918 C179.3235,97.3488 176.1585,86.5908 170.5135,76.7178 L170.5135,76.7178 Z" id="Fill-6" fill="#CFB392"></path>
                <path d="M45.5931,112.1803 C45.5931,111.6233 45.6051,111.0663 45.6201,110.5103 L51.6971,104.9563 C51.4331,107.1233 51.2901,109.3083 51.2781,111.5003 L45.9541,118.8673 C45.7201,116.6693 45.5931,114.4393 45.5931,112.1803 L45.5931,112.1803 Z M42.0681,89.0443 L41.9841,89.0853 C43.0491,86.0883 44.3031,83.1493 45.7871,80.2893 L47.3591,90.4733 C46.6731,92.3953 46.0791,94.3483 45.5791,96.3253 L42.0681,89.0443 Z M43.8111,106.9893 L39.3641,98.5123 C39.8311,96.2013 40.4181,93.9243 41.1171,91.6793 L44.8651,99.4503 C44.3651,101.9363 44.0161,104.4543 43.8111,106.9893 L43.8111,106.9893 Z M38.0621,108.4923 C38.1921,106.2073 38.4421,103.9503 38.7871,101.7173 L43.6141,110.9183 C43.6051,111.3383 43.5931,111.7593 43.5931,112.1803 C43.5931,114.2003 43.6991,116.1953 43.8811,118.1683 L38.0621,108.4923 Z M49.1091,91.5223 L57.0841,86.7743 C55.9711,89.0453 55.0331,91.3913 54.2341,93.7843 L47.2411,97.9293 C47.7481,95.7613 48.3741,93.6233 49.1091,91.5223 L49.1091,91.5223 Z M52.1681,101.8173 L45.7621,107.6713 C45.9341,105.2893 46.2431,102.9243 46.6841,100.5843 L53.3641,96.6243 C52.8901,98.3363 52.4811,100.0663 52.1681,101.8173 L52.1681,101.8173 Z M87.2121,171.1873 C65.8381,163.5433 49.7871,144.6113 46.3021,121.6003 L53.0871,112.4103 C53.2101,112.2393 53.2771,112.0353 53.2771,111.8243 C53.2771,102.2773 55.7771,92.8583 60.5071,84.5863 C60.7321,84.1913 60.6631,83.6943 60.3391,83.3753 C60.0151,83.0583 59.5181,82.9963 59.1271,83.2293 L50.2391,88.5183 C51.2721,85.9863 52.4711,83.5193 53.8341,81.1353 C54.1081,80.6563 53.9411,80.0453 53.4621,79.7703 C52.9831,79.4963 52.3721,79.6623 52.0971,80.1423 C50.8711,82.2883 49.7791,84.5023 48.8111,86.7663 L47.3131,77.0563 C47.2481,76.6353 46.9251,76.2953 46.5071,76.2183 C46.0861,76.1433 45.6671,76.3233 45.4561,76.6913 C39.8121,86.5633 36.6471,97.2943 36.0481,108.6383 C36.0371,108.8373 36.0871,108.9813 36.1901,109.1523 L44.1181,122.2303 C44.1941,122.3563 44.2991,122.4173 44.4181,122.4533 C48.2261,146.1963 65.0061,165.6513 87.2331,173.3163 C87.2261,172.6003 87.2191,171.8923 87.2121,171.1873 L87.2121,171.1873 Z" id="Fill-8" fill="#CFB392"></path>
                <polygon id="Fill-10" fill="#EFECE1" points="81.2543 122.9771 76.6983 107.5181 75.3903 102.7201 75.3903 122.9771 71.5623 122.9771 71.5623 90.7021 75.5353 90.7021 79.6073 106.2091 80.8173 111.0551 80.8173 90.7021 84.5983 90.7021 84.5983 122.9771"></polygon>
                <path d="M138.4173,123.4615 C134.7823,123.4615 132.1173,120.6995 132.1173,116.8225 L132.1173,96.8565 C132.1173,93.0275 134.7823,90.2165 138.4173,90.2165 C142.1483,90.2165 144.2803,92.9305 144.2803,96.7105 L144.2803,102.0895 L140.5983,102.0895 L140.5983,96.4685 C140.5983,95.2565 139.9193,94.3365 138.5143,94.3365 C137.1083,94.3365 136.4303,95.2565 136.4303,96.4685 L136.4303,117.2105 C136.4303,118.4215 137.1083,119.3425 138.5143,119.3425 C139.9193,119.3425 140.5983,118.4215 140.5983,117.2105 L140.5983,111.5405 L144.2803,111.5405 L144.2803,116.9675 C144.2803,120.7965 142.1483,123.4615 138.4173,123.4615" id="Fill-12" fill="#EFECE1"></path>
                <path d="M72.6838,59.5741 L67.3498,59.5741 L66.5248,60.3981 L66.5248,66.1201 L67.3498,66.9451 L72.6838,66.9451 L73.5088,66.1201 L73.5088,60.3981 L72.6838,59.5741 Z M66.5248,51.8201 L67.3498,52.5901 L72.6838,52.5901 L73.5088,51.8201 L73.5088,46.5941 L72.6838,45.7691 L67.3498,45.7691 L66.5248,46.5941 L66.5248,51.8201 Z M58.7158,38.8941 L76.9728,38.8941 L80.4928,42.3041 L80.4928,52.5901 L76.9178,56.0541 L80.4928,59.5741 L80.4928,70.5191 L76.9728,73.9841 L58.7158,73.9841 L59.5958,71.2891 L59.5958,41.5341 L58.7158,38.8941 Z" id="Fill-14" fill="#EFECE1"></path>
                <polygon id="Fill-16" fill="#EFECE1" points="85.2236 73.9839 86.1036 71.2899 86.1036 41.5349 85.2236 38.8949 106.1206 38.8949 107.3856 46.5939 104.5266 45.7689 93.8026 45.7689 92.9776 46.5939 92.9776 51.8749 93.8026 52.6999 97.3216 52.6999 100.0166 51.8199 100.0166 60.5639 97.3216 59.6839 93.8026 59.6839 92.9776 60.4539 92.9776 66.1199 93.8026 66.9449 104.5266 66.9449 107.3856 66.1199 106.1206 73.9839"></polygon>
                <polygon id="Fill-18" fill="#EFECE1" points="110.3017 73.9839 111.1817 71.2899 111.1817 41.5349 110.3017 38.8949 131.1987 38.8949 132.4637 46.5939 129.6047 45.7689 118.8807 45.7689 118.0557 46.5939 118.0557 51.8749 118.8807 52.6999 122.3997 52.6999 125.0947 51.8199 125.0947 60.5639 122.3997 59.6839 118.8807 59.6839 118.0557 60.4539 118.0557 66.1199 118.8807 66.9449 129.6047 66.9449 132.4637 66.1199 131.1987 73.9839"></polygon>
                <path d="M149.3482,54.5698 L150.1732,53.7998 L150.1732,46.7038 L149.3482,45.9338 L143.9582,45.9338 L143.1342,46.7038 L143.1342,53.7998 L143.9582,54.5698 L149.3482,54.5698 Z M135.3802,73.9838 L136.2602,71.3438 L136.2602,41.5898 L135.3802,38.8948 L153.6372,38.8948 L157.1572,42.3048 L157.1572,57.9788 L153.6372,61.4988 L156.6622,71.1788 L157.7622,73.9838 L149.1282,73.9838 L149.7332,71.3988 L146.7632,62.1588 L146.2132,61.4988 L143.9582,61.4988 L143.1342,62.3238 L143.1342,71.3438 L144.0142,73.9838 L135.3802,73.9838 Z" id="Fill-20" fill="#EFECE1"></path>
                <path d="M122.0467,151.9894 C122.0777,152.1474 122.1527,152.2154 122.2247,152.3504 C122.3027,152.4904 122.3147,152.6614 122.3697,152.8034 C122.4377,152.9734 122.4787,153.0714 122.4687,153.2714 C122.1917,153.2734 122.1557,152.5774 121.9407,152.4474 C121.9317,152.6164 121.9817,152.7784 121.9677,152.9424 C121.8377,152.9734 121.7147,152.7794 121.6467,152.6924 C121.5867,152.6144 121.4297,152.3954 121.3167,152.4104 C121.0587,152.4424 121.6687,152.9304 121.6377,153.0574 C121.4927,153.0654 121.3337,153.0814 121.2107,153.0214 C121.1557,152.9954 121.0907,152.9014 121.0417,152.9664 C120.9887,153.0384 121.1167,153.1194 121.1117,153.1864 C120.9987,153.2004 120.8107,153.0364 120.6997,152.9874 C120.5947,152.9414 120.4637,152.8574 120.3507,152.8654 C120.3097,153.0694 120.6207,153.0814 120.5867,153.3164 C120.3967,153.3284 120.3357,153.4944 120.3407,153.6644 C119.9987,153.6844 119.6667,153.5484 119.4907,153.2434 C119.3727,153.0374 119.4837,152.9864 119.5197,152.7844 C119.5537,152.6064 119.5477,152.4484 119.3607,152.3774 C119.3627,152.5204 119.4447,152.6644 119.4037,152.8154 C119.3697,152.9494 119.2297,153.0004 119.2297,153.1504 C119.2297,153.3664 119.5007,153.4004 119.5387,153.5904 C119.5767,153.7814 119.4947,153.9744 119.4907,154.1614 C119.7077,154.2154 119.9127,153.9694 120.1217,153.9344 C120.2277,153.9164 120.4087,153.8874 120.5147,153.9174 C120.6087,153.9424 120.6737,154.0444 120.7897,154.0094 C120.9167,153.9694 120.8327,153.8604 120.9557,153.7984 C121.0587,153.7444 121.2787,153.7824 121.3967,153.7814 C121.4877,153.7804 121.6687,153.7184 121.7437,153.7534 C121.8517,153.8044 121.8297,153.9664 121.8277,154.0664 C121.5527,154.1084 121.7457,154.4304 121.7217,154.5934 C121.4757,154.6214 121.7267,154.8014 121.7537,154.8724 C121.8157,155.0474 121.6447,155.0664 121.5217,155.0704 C121.5117,155.2924 121.8687,155.2094 121.9647,155.1214 C122.0907,155.0114 122.0417,154.8174 122.0417,154.6624 C122.0397,154.5054 122.0157,154.3334 122.0347,154.1774 C122.0397,154.1494 122.0877,153.9874 122.1027,153.9814 C122.1817,153.9594 122.2517,154.1454 122.2827,154.1874 C122.3547,154.0754 122.2547,153.8774 122.4787,153.9384 C122.6377,153.9814 122.6537,154.1764 122.6617,154.3274 C122.6667,154.3864 122.6417,154.4794 122.6807,154.5284 C122.7427,154.6164 122.9507,154.5764 122.9937,154.6814 C123.0517,154.8094 122.8127,154.9414 122.7247,154.9644 C122.7697,155.0474 122.8277,155.0644 122.8207,155.1674 C122.8157,155.2954 122.7407,155.3054 122.6417,155.3494 C122.5527,155.3904 122.5097,155.3914 122.4347,155.3794 C122.4327,155.3794 122.4247,155.3254 122.3797,155.3234 C122.3457,155.3224 122.3027,155.3824 122.2707,155.3964 C122.2617,155.5274 122.2037,155.6164 122.1167,155.7224 C122.0277,155.8324 121.9797,155.8684 121.9197,155.9934 C121.8517,156.1324 121.7537,156.1984 121.6617,156.2994 C121.5487,156.4254 121.5437,156.5544 121.3367,156.5254 C121.2567,156.5134 121.2517,156.4774 121.1867,156.4524 C121.0997,156.4194 121.0067,156.4344 120.9197,156.4174 C120.7577,156.3854 120.7797,156.3184 120.6957,156.1984 C120.4757,155.8904 120.4567,156.4464 120.2107,156.3024 C120.0617,156.2174 120.0017,155.9954 120.0737,155.8594 C120.1607,155.8184 120.2857,155.8664 120.3777,155.8844 C120.4757,155.6584 119.9987,155.4884 119.8857,155.6444 C119.8277,155.7214 119.9247,155.8444 119.9387,155.9144 C119.9527,155.9974 119.9507,156.0894 119.9487,156.1754 C119.7967,156.1844 119.6547,156.2264 119.5097,156.2064 C119.3437,156.1824 119.1947,156.1344 119.0257,156.1194 C118.9297,156.1104 118.3627,155.7384 118.3417,155.8884 C118.3147,156.0444 118.7167,156.0824 118.8017,156.1444 C118.9847,156.2774 119.2117,156.3624 119.4207,156.4544 C119.6587,156.5584 120.4957,156.5784 120.4377,156.9724 C120.3267,156.9794 119.6767,156.9274 119.9817,157.2254 C119.8857,157.2304 119.7897,157.2264 119.6957,157.2324 C119.6667,157.4554 120.0977,157.3734 119.8757,157.6014 C119.7367,157.7484 119.4947,157.8274 119.4477,158.0444 C119.3457,158.0614 119.2517,158.0294 119.1657,157.9804 C119.0637,157.9244 118.9247,157.8934 118.8447,157.8184 C118.7727,157.7504 118.7197,157.6684 118.6347,157.6034 C118.5387,157.5304 118.4297,157.4944 118.3287,157.4304 C118.3247,157.5554 118.5417,157.7254 118.6207,157.8044 C118.7167,157.8954 118.8207,157.9844 118.9027,158.0874 C119.0257,158.2374 119.0837,158.3414 119.2977,158.3504 C119.5387,158.3614 119.5557,158.2564 119.7267,158.1624 C119.8737,158.0804 119.9267,158.0944 120.0207,158.2494 C120.1777,158.2474 120.1777,158.1154 120.1727,157.9894 C120.2357,157.9864 120.2947,158.0034 120.3557,158.0014 C120.3607,158.0134 120.3557,158.0254 120.3607,158.0374 C120.4177,157.9434 120.3217,157.7684 120.4587,157.7214 C120.6687,157.6494 120.5727,157.9534 120.5457,158.0374 C120.5097,158.1424 120.5147,158.3654 120.6647,158.1804 C120.7677,158.0544 120.6277,157.8644 120.8927,157.8894 C121.0347,157.9024 121.1457,158.1004 121.0587,158.2424 C121.0007,158.3384 120.8397,158.3254 120.7657,158.4264 C120.7287,158.4734 120.7287,158.5234 120.6997,158.5714 C120.6537,158.6474 120.5867,158.6734 120.5217,158.7314 C120.3917,158.8474 120.4977,158.9324 120.4327,159.0754 C120.3777,159.1894 120.1847,159.2134 120.0807,159.2084 C120.0467,159.1334 120.1027,158.7244 119.9317,158.7644 C119.8157,158.7914 119.8567,159.1174 119.8517,159.2114 C119.6637,159.2724 119.8087,158.8594 119.5727,158.8734 C119.3197,158.8884 119.5217,159.1154 119.5117,159.2534 C119.3317,159.2634 119.1417,159.2394 118.9577,159.2594 C118.8037,159.2774 118.7777,159.3444 118.6857,159.4564 C118.6547,159.4954 118.5747,159.5934 118.5317,159.6064 C118.3867,159.6474 118.3317,159.4764 118.3197,159.3674 C118.3007,159.1974 118.3727,159.0204 118.1217,159.0594 C118.0957,159.1434 118.1337,159.2394 118.1097,159.3214 C118.0837,159.4004 118.0357,159.4104 117.9747,159.4664 C117.8447,159.5844 117.8087,159.8324 117.6277,159.8634 C117.5677,159.8734 117.4497,159.8584 117.4207,159.7984 C117.3707,159.7004 117.5007,159.6924 117.4957,159.5984 C117.4837,159.4004 117.2357,159.4104 117.2927,159.1724 C117.2687,159.1654 117.2257,159.1654 117.2047,159.1724 C117.1827,159.2494 117.1797,159.3404 117.2047,159.4184 C117.2187,159.4674 117.2767,159.5244 117.2717,159.5774 C117.2597,159.6834 117.1877,159.6204 117.1557,159.6854 C117.1247,159.7504 117.2047,159.8464 117.2377,159.8934 C117.3677,160.0714 117.2667,160.0624 117.1317,160.2584 C117.0687,160.3454 117.0497,160.4574 116.9627,160.4994 C116.9197,160.5214 116.8237,160.5124 116.7697,160.5234 C116.6117,160.5604 116.5177,160.5934 116.3987,160.7144 C116.2837,160.8324 116.1627,160.9144 116.0717,161.0464 C115.9297,161.2524 115.7947,161.4684 115.6717,161.6874 C115.6087,161.7984 115.5507,161.8934 115.5537,162.0164 C115.5587,162.2324 115.6067,162.4414 115.5077,162.6514 C115.3107,162.7064 115.4017,162.2164 115.4017,162.1054 C115.3997,161.9024 115.4037,161.7144 115.1777,161.6464 C115.1207,161.7534 115.1917,162.0204 115.2037,162.1454 C115.2187,162.2874 115.2187,162.4344 115.2237,162.5814 C115.2237,162.7284 115.1997,162.8164 115.0257,162.8034 C114.9537,162.7974 114.9127,162.7554 114.8427,162.7354 C114.6717,162.6874 114.4167,162.6784 114.2407,162.6784 C114.1007,162.6784 113.9897,162.7064 113.8597,162.7214 C113.7247,162.7354 113.6167,162.7284 113.5007,162.7914 C113.4167,162.8364 113.3677,162.9264 113.2677,162.9374 L109.4467,158.9384 L105.5447,158.8024 L105.6187,158.2494 L105.1527,157.5704 L104.7597,157.7844 L104.7437,157.3774 L100.2217,157.0624 C100.2217,157.0624 99.5257,157.1344 99.2907,157.2544 C99.0547,157.3754 99.1087,157.4664 98.7927,157.4684 C98.4777,157.4714 97.7317,157.7424 97.7057,157.8074 C96.8317,157.7724 95.9577,157.7364 95.0827,157.7004 C94.5477,157.6774 94.0107,157.6564 93.4757,157.6324 C93.4607,157.5504 93.5657,157.4674 93.5767,157.3724 C93.5897,157.2594 93.5767,157.1414 93.5867,157.0294 C93.6047,156.8234 93.6247,156.5194 93.9007,156.5404 C94.0397,156.5514 94.1167,156.5914 94.2617,156.5284 C94.3657,156.4834 94.5927,156.4364 94.6547,156.3384 C94.7197,156.2384 94.6337,156.0734 94.6767,155.9664 C94.7257,155.8424 94.8957,155.7734 94.9897,155.6874 C95.4117,155.2994 95.8727,155.3134 96.4187,155.3364 C96.8237,155.3544 96.9827,154.9114 97.2987,154.7404 C97.4487,154.6574 97.6287,154.7074 97.7787,154.6284 C97.9237,154.5514 98.0657,154.4014 98.2267,154.3604 C98.4377,154.3054 98.4937,154.4254 98.5137,154.1474 C98.5237,154.0104 98.5067,153.9204 98.6477,153.8844 C98.7607,153.8554 98.9157,153.9504 99.0077,153.8604 C99.0917,153.7804 99.0307,153.5774 99.1437,153.5014 C99.2127,153.4544 99.4827,153.4604 99.5627,153.4974 C99.6877,153.5564 99.7017,153.7434 99.7357,153.8604 C100.1297,153.9064 100.0977,153.4604 100.3257,153.2904 C100.4237,153.2184 100.5427,153.2244 100.6597,153.1964 C100.7717,153.1694 100.8807,153.1234 101.0037,153.1404 C101.0967,153.1534 101.1677,153.2524 101.2387,153.2574 C101.3267,153.2634 101.5007,153.1094 101.5647,153.0504 C101.7267,152.9014 101.7147,152.6184 101.8867,152.4854 C102.0227,152.3804 102.2137,152.4174 102.2037,152.1854 C102.3327,152.1744 102.4197,152.2264 102.5537,152.2184 C102.5697,152.1244 102.4787,152.0374 102.5107,151.9564 C102.5357,151.8924 102.6127,151.8834 102.6467,151.8294 C102.7157,151.7244 102.6507,151.6524 102.6367,151.5424 C102.6147,151.3684 102.7237,151.3144 102.8837,151.2964 C103.0577,151.2764 103.2457,151.3134 103.4217,151.3274 C103.7317,151.3524 104.0427,151.3684 104.3527,151.3824 C105.2567,151.4244 106.1607,151.4484 107.0657,151.4684 C108.2117,151.4924 109.3557,151.5084 110.4997,151.5194 C111.7227,151.5294 112.9467,151.5354 114.1677,151.5344 C115.3027,151.5334 116.4377,151.5284 117.5727,151.5154 C118.4587,151.5054 119.3407,151.4914 120.2257,151.4604 C120.6877,151.4444 121.1797,151.4614 121.6327,151.3694 C121.6397,151.3684 121.7187,151.3534 121.7147,151.3504" id="Fill-22" fill="#231F1F"></path>
            </g>
        </g>
    </g>
</svg>